<svg fill="currentColor" xmlns="http://www.w3.org/2000/svg" viewBox="0 0 237.42 180.24"><rect x="2.15" y="114.15" width="43.34" height="6.71" rx="0.87" /><rect y="141.11" width="47.64" height="6.71" rx="0.87" /><rect x="3.42" y="127.15" width="40.79" height="6.71" rx="0.87" /><path d="M165.78,140.68h0Z" /><path d="M174.15,114.9a.87.87,0,0,0-.87-.88H155a.44.44,0,0,1-.44-.43v-.82a.77.77,0,0,0-.07-.34.74.74,0,0,0-.17-.25l-.06-.06a.94.94,0,0,0-.18-.12l-.09,0a.73.73,0,0,0-.3-.07h-6.5a.82.82,0,0,0-.31.07l-.08,0a.57.57,0,0,0-.18.12l-.07.06a.74.74,0,0,0-.17.25.93.93,0,0,0-.06.34v.82a.44.44,0,0,1-.44.43H127.62a.87.87,0,0,0-.88.88v2.48a.87.87,0,0,0,.88.87h18.27a.44.44,0,0,1,.4.26,0,0,0,0,0,0,0,.77.77,0,0,1,0,.15h0v1.15s0,0,0,.08,0,.06,0,.09l0,0a.28.28,0,0,1-.08.11h0a.28.28,0,0,1-.12.08h0a.41.41,0,0,1-.16,0H129.45a.87.87,0,0,0-.87.87V139a.87.87,0,0,0,.87.87h5.41a.43.43,0,0,1,.32.73l-8.68,7.28h0a.81.81,0,0,0-.18.19.1.1,0,0,0,0,0,.84.84,0,0,0-.13.44.87.87,0,0,0,.87.87h7.58a.88.88,0,0,0,.62-.26h0l10.06-8.44h0l.07-.06a.59.59,0,0,1,1,.45v7.59a.8.8,0,0,0,.07.34.76.76,0,0,0,.16.25l.07.06.18.12.08,0a1.07,1.07,0,0,0,.31.06h6.5a.94.94,0,0,0,.3-.06l.09,0,.18-.12.06-.06a1,1,0,0,0,.17-.25.8.8,0,0,0,.07-.34v-7.59a.58.58,0,0,1,1-.45l.07.06h0l10.07,8.44h0a.88.88,0,0,0,.62.26h7.58a.87.87,0,0,0,.87-.87.84.84,0,0,0-.13-.44l0,0a.81.81,0,0,0-.18-.19h0l-8.68-7.28a.43.43,0,0,1,.32-.73h5.4a.88.88,0,0,0,.88-.87V121.14a.88.88,0,0,0-.88-.87H155a.45.45,0,0,1-.16,0h0a.2.2,0,0,1-.12-.08h0a1,1,0,0,1-.08-.11s0,0,0,0a.29.29,0,0,1,0-.09.31.31,0,0,1,0-.08v-1.15h0a.4.4,0,0,1,0-.15,0,0,0,0,1,0,0,.44.44,0,0,1,.4-.26h18.27a.87.87,0,0,0,.87-.87ZM137.7,135.81a.88.88,0,0,1-.86-.87V133a.87.87,0,0,1,.88-.87h7.72a.87.87,0,0,1,.88.87v1.92a.88.88,0,0,1-.86.87Zm0-7.84a.88.88,0,0,1-.86-.87v-1.92a.87.87,0,0,1,.88-.87h7.72a.87.87,0,0,1,.88.87v1.92a.88.88,0,0,1-.86.87Zm17.74,7.84a.88.88,0,0,1-.86-.87V133a.87.87,0,0,1,.87-.87h7.73a.87.87,0,0,1,.87.87v1.92a.88.88,0,0,1-.86.87Zm0-7.84a.87.87,0,0,1-.86-.87v-1.92a.87.87,0,0,1,.87-.87h7.73a.87.87,0,0,1,.87.87v1.92a.87.87,0,0,1-.86.87Z" /><path d="M135.11,140.68Z" /><path d="M228.46,140.68h0Z" /><path d="M236.83,114.9A.87.87,0,0,0,236,114H217.69a.44.44,0,0,1-.44-.43v-.82a.77.77,0,0,0-.07-.34.74.74,0,0,0-.17-.25l-.06-.06a.94.94,0,0,0-.18-.12l-.09,0a.73.73,0,0,0-.3-.07h-6.5a.82.82,0,0,0-.31.07l-.08,0a.57.57,0,0,0-.18.12l-.07.06a.6.6,0,0,0-.16.25.77.77,0,0,0-.07.34v.82a.44.44,0,0,1-.44.43H190.3a.87.87,0,0,0-.88.88v2.48a.87.87,0,0,0,.88.87h18.27a.44.44,0,0,1,.4.26,0,0,0,0,0,0,0,.8.8,0,0,1,0,.15h0v1.15s0,0,0,.08,0,.06,0,.09l0,0a.28.28,0,0,1-.08.11h0a.28.28,0,0,1-.12.08h0a.41.41,0,0,1-.16,0H192.14a.87.87,0,0,0-.88.87V139a.87.87,0,0,0,.88.87h5.4a.43.43,0,0,1,.32.73l-8.68,7.28h0a.81.81,0,0,0-.18.19.1.1,0,0,0,0,0,.84.84,0,0,0-.13.44.87.87,0,0,0,.87.87h7.58a.88.88,0,0,0,.62-.26h0L208,140.77h0l.07-.06a.59.59,0,0,1,1,.45v7.59a.8.8,0,0,0,.07.34,1,1,0,0,0,.16.25s0,0,.07.06l.18.12.08,0a1.07,1.07,0,0,0,.31.06h6.5a1.07,1.07,0,0,0,.31-.06l.08,0,.18-.12.06-.06a1,1,0,0,0,.17-.25.8.8,0,0,0,.07-.34v-7.59a.58.58,0,0,1,1-.45l.07.06h0l10.07,8.44h0a.88.88,0,0,0,.62.26h7.58a.87.87,0,0,0,.87-.87.84.84,0,0,0-.13-.44l0,0a.81.81,0,0,0-.18-.19h0l-8.68-7.28a.43.43,0,0,1,.32-.73h5.4A.88.88,0,0,0,235,139V121.14a.88.88,0,0,0-.88-.87H217.68a.45.45,0,0,1-.16,0h0a.2.2,0,0,1-.12-.08h0a.41.41,0,0,1-.07-.11l0,0a.29.29,0,0,1,0-.09.31.31,0,0,1,0-.08v-1.15h0a.8.8,0,0,1,0-.15s0,0,0,0a.44.44,0,0,1,.4-.26H236a.87.87,0,0,0,.87-.87Zm-27.83,20a.88.88,0,0,1-.86.87h-7.75a.88.88,0,0,1-.87-.87V133a.88.88,0,0,1,.88-.87h7.72a.87.87,0,0,1,.88.87Zm0-7.84a.88.88,0,0,1-.86.87h-7.75a.88.88,0,0,1-.87-.87v-1.92a.88.88,0,0,1,.88-.87h7.72a.87.87,0,0,1,.88.87Zm17.73,7.84a.88.88,0,0,1-.86.87h-7.75a.88.88,0,0,1-.86-.87V133a.87.87,0,0,1,.87-.87h7.73a.87.87,0,0,1,.87.87Zm0-7.84a.87.87,0,0,1-.86.87h-7.75a.87.87,0,0,1-.86-.87v-1.92a.87.87,0,0,1,.87-.87h7.73a.87.87,0,0,1,.87.87Z" /><path d="M197.79,140.68Z" /><path d="M111.11,148.37V121a.87.87,0,0,0-.87-.87H103a.44.44,0,0,1-.44-.44.42.42,0,0,1,.1-.26l3.72-4.45a.86.86,0,0,0,.18-.49.88.88,0,0,0-.88-.88H78.24a.45.45,0,0,1-.45-.46.59.59,0,0,1,0-.13h0a.67.67,0,0,0,.06-.28.88.88,0,0,0-.87-.88H71.08a.86.86,0,0,0-.64.29h0l-7,8.33a.86.86,0,0,0-.21.54.87.87,0,0,0,.88.87h.68a.88.88,0,0,1,.87.88v25.59a.88.88,0,0,0,.88.87H73a.87.87,0,0,0,.87-.87v-7.75a.87.87,0,0,1,.87-.87H102a.88.88,0,0,1,.88.87h0v3.47a.88.88,0,0,1-.88.88H89.58a.87.87,0,0,0-.87.87v2.51a.87.87,0,0,0,.87.87h20.66A.87.87,0,0,0,111.11,148.37Zm-37.3-30.45a.59.59,0,0,1,.46-.24H95a.44.44,0,0,1,.44.44.47.47,0,0,1-.12.3h0l-1.27,1.51h0a.57.57,0,0,1-.44.22H72.86a.44.44,0,0,1-.44-.44.43.43,0,0,1,.13-.3ZM83.61,132a.88.88,0,0,1,.87.88h0v1.89a.87.87,0,0,1-.87.87H74.78a.87.87,0,0,1-.87-.87v-1.9a.88.88,0,0,1,.87-.88Zm0-7.75a.87.87,0,0,1,.87.87V127a.87.87,0,0,1-.87.87H74.78a.87.87,0,0,1-.87-.87v-1.91a.87.87,0,0,1,.87-.87ZM102,132a.88.88,0,0,1,.87.88h0v1.89a.87.87,0,0,1-.87.87H93.17a.87.87,0,0,1-.87-.87v-1.9a.88.88,0,0,1,.87-.88Zm0-7.75a.87.87,0,0,1,.87.87V127a.87.87,0,0,1-.87.87H93.17a.87.87,0,0,1-.87-.87v-1.91a.87.87,0,0,1,.87-.87Z" /><polygon points="0 159.92 4.54 159.92 4.54 173.75 8.65 173.75 8.65 159.92 13.29 159.92 13.29 156.73 0 156.73 0 159.92" /><path d="M22.07,160.49a4.44,4.44,0,0,0-1.41.21,4.6,4.6,0,0,0-1.13.57,3.84,3.84,0,0,0-.83.83,5.46,5.46,0,0,0-.6,1l-.4-2.27H14.56v13h4v-6.48a3.87,3.87,0,0,1,.83-2.81,2.84,2.84,0,0,1,2.07-.81,3.71,3.71,0,0,1,1.13.14,3.27,3.27,0,0,1,.76.29L24,161a3.65,3.65,0,0,0-.8-.33A3.85,3.85,0,0,0,22.07,160.49Z" /><rect x="25.42" y="160.79" width="4" height="12.97" /><path d="M27.42,154.3a2,2,0,0,0-1.55.58,2,2,0,0,0,0,2.78,2,2,0,0,0,1.56.59,2.06,2.06,0,0,0,1.57-.57,2,2,0,0,0,.54-1.41,1.92,1.92,0,0,0-.55-1.4A2.08,2.08,0,0,0,27.42,154.3Z" /><path d="M38.58,160.49a10.54,10.54,0,0,0-2.85.39,10.66,10.66,0,0,0-2.5,1l1.35,2.62a8.74,8.74,0,0,1,1.73-.78,5.51,5.51,0,0,1,1.6-.25,2.39,2.39,0,0,1,1.46.4,1.32,1.32,0,0,1,.51,1.12v.7H38.53a12,12,0,0,0-2.45.24,6.77,6.77,0,0,0-2,.76,4.06,4.06,0,0,0-1.35,1.32,3.67,3.67,0,0,0-.5,1.95,4.39,4.39,0,0,0,.29,1.58,3.56,3.56,0,0,0,.82,1.28,4,4,0,0,0,1.37.87,6,6,0,0,0,4.18-.12,4,4,0,0,0,1.5-1.15h.11l.35,1.29h3.06v-8.4a4.45,4.45,0,0,0-1.46-3.7A6.07,6.07,0,0,0,38.58,160.49ZM39.91,170a2.25,2.25,0,0,1-.75.84,2,2,0,0,1-1.17.38,2.11,2.11,0,0,1-1.15-.32,1.24,1.24,0,0,1-.5-1.14,1.3,1.3,0,0,1,.14-.58,1.14,1.14,0,0,1,.44-.49,2.7,2.7,0,0,1,.83-.34,6,6,0,0,1,1.27-.16l.89,0Z" /><path d="M54.69,160.49a5.42,5.42,0,0,0-2.35.51,6.65,6.65,0,0,0-2,1.41l-.46-1.62H46.82v13h4v-8.86a4.53,4.53,0,0,1,1.26-1,3,3,0,0,1,1.36-.38,1.57,1.57,0,0,1,1.31.56,2.31,2.31,0,0,1,.45,1.5v8.18h4v-8.59A4.79,4.79,0,0,0,58,161.68,4.49,4.49,0,0,0,54.69,160.49Z" /><path d="M68.85,160.57a8.71,8.71,0,0,0-1.06-.08,7.18,7.18,0,0,0-2.28.34,5.33,5.33,0,0,0-1.81,1,4.37,4.37,0,0,0-1.2,1.51,4.31,4.31,0,0,0-.44,1.93,3.78,3.78,0,0,0,.22,1.31,4.11,4.11,0,0,0,.55,1,4.73,4.73,0,0,0,.73.8,4,4,0,0,0,.75.53,4.05,4.05,0,0,0-1.4,1.07,2.41,2.41,0,0,0-.55,1.58,2.09,2.09,0,0,0,.41,1.31,3.18,3.18,0,0,0,.73.74,3.83,3.83,0,0,0-1.64,1,2.23,2.23,0,0,0-.58,1.53,3.35,3.35,0,0,0,1.73,3,9.16,9.16,0,0,0,4.76,1.05,11.3,11.3,0,0,0,3-.36,7.54,7.54,0,0,0,2.27-1,4.71,4.71,0,0,0,1.45-1.54,3.83,3.83,0,0,0,.51-1.94,4.49,4.49,0,0,0-.35-1.85,3.1,3.1,0,0,0-1-1.26,3.87,3.87,0,0,0-1.52-.7,8,8,0,0,0-2-.22H67.41a1.68,1.68,0,0,1-1-.22.69.69,0,0,1-.25-.56.72.72,0,0,1,.16-.49,1.4,1.4,0,0,1,.35-.3,3.35,3.35,0,0,0,.54.08,5.17,5.17,0,0,0,.57,0,7.69,7.69,0,0,0,2.38-.34,5,5,0,0,0,1.78-1A4.27,4.27,0,0,0,73,167.13a4.45,4.45,0,0,0,.37-1.86,3.83,3.83,0,0,0-.2-1.24,3.41,3.41,0,0,0-.5-1l1.52.24h1.24v-2.45H69.93A7.91,7.91,0,0,0,68.85,160.57Zm.27,13.75a2.72,2.72,0,0,1,1.45.29,1,1,0,0,1,.44.9,1.5,1.5,0,0,1-.77,1.23,4.26,4.26,0,0,1-2.37.53,4,4,0,0,1-2.33-.49,1.41,1.41,0,0,1-.64-1.16,1.32,1.32,0,0,1,.24-.81,1.64,1.64,0,0,1,.57-.49ZM69,166.64a1.88,1.88,0,0,1-2.53,0,2.37,2.37,0,0,1,0-2.9,1.69,1.69,0,0,1,1.27-.5,1.7,1.7,0,0,1,1.25.5,2,2,0,0,1,.5,1.45A2,2,0,0,1,69,166.64Z" /><rect x="77.84" y="154.44" width="3.94" height="19.32" /><path d="M90.87,160.49a6.71,6.71,0,0,0-2.66.5,5.67,5.67,0,0,0-2.07,1.42,6.34,6.34,0,0,0-1.34,2.2,8,8,0,0,0-.47,2.82,6.87,6.87,0,0,0,.58,3,5.8,5.8,0,0,0,1.57,2.06,6.43,6.43,0,0,0,2.29,1.2,9.71,9.71,0,0,0,2.77.39,11.84,11.84,0,0,0,2.74-.27,9.83,9.83,0,0,0,1.86-.62l-.73-2.76a6.88,6.88,0,0,1-1.41.52,8.09,8.09,0,0,1-2,.21,5.06,5.06,0,0,1-2.64-.62,2.12,2.12,0,0,1-1.06-2v-.11h8.38v-1.7a6.32,6.32,0,0,0-1.59-4.62A5.74,5.74,0,0,0,90.87,160.49Zm-2.44,5.27a3,3,0,0,1,.73-1.8,2.08,2.08,0,0,1,1.57-.66,1.84,1.84,0,0,1,.88.2,1.8,1.8,0,0,1,.59.54,2.24,2.24,0,0,1,.34.77,3.8,3.8,0,0,1,.11.89Z" /><path d="M118.25,158.79a7.55,7.55,0,0,0-2.82-1.54,12.12,12.12,0,0,0-3.68-.52h-6.08v17h5.41a12.7,12.7,0,0,0,3.73-.54,8.65,8.65,0,0,0,3.06-1.63,7.67,7.67,0,0,0,2.07-2.76,9.43,9.43,0,0,0,.76-3.93,9.26,9.26,0,0,0-.64-3.55A6.74,6.74,0,0,0,118.25,158.79Zm-2.34,8.86a4.63,4.63,0,0,1-1.21,1.77,4.43,4.43,0,0,1-1.77.93,8.17,8.17,0,0,1-2.1.27h-1V159.87h1.49a5.21,5.21,0,0,1,3.72,1.28,4.86,4.86,0,0,1,1.38,3.74A7.17,7.17,0,0,1,115.91,167.65Z" /><path d="M134.15,162.2a5.9,5.9,0,0,0-2.12-1.28,7.94,7.94,0,0,0-2.66-.43,7.59,7.59,0,0,0-2.68.47,6.22,6.22,0,0,0-2.16,1.37,6.29,6.29,0,0,0-1.44,2.18,7.83,7.83,0,0,0-.53,3,7.28,7.28,0,0,0,.51,2.8,6,6,0,0,0,1.41,2.06,6.07,6.07,0,0,0,2.12,1.29,7.94,7.94,0,0,0,2.66.44,7.63,7.63,0,0,0,2.68-.47,6.41,6.41,0,0,0,2.16-1.37,6.3,6.3,0,0,0,1.44-2.16,7.4,7.4,0,0,0,.53-2.86,7.57,7.57,0,0,0-.51-2.89A6.11,6.11,0,0,0,134.15,162.2Zm-2.4,6.91a3.46,3.46,0,0,1-.58,1.17,2.23,2.23,0,0,1-.84.65,2.43,2.43,0,0,1-1,.2,2.4,2.4,0,0,1-1.86-.92,4.28,4.28,0,0,1-.81-2.89,7,7,0,0,1,.21-1.87,3.69,3.69,0,0,1,.58-1.21,2.1,2.1,0,0,1,.84-.64,2.6,2.6,0,0,1,1-.19,2.53,2.53,0,0,1,1,.21,2.43,2.43,0,0,1,.86.69,3.66,3.66,0,0,1,.6,1.22,7.73,7.73,0,0,1,0,3.58Z" /><path d="M146.39,160.49A5.42,5.42,0,0,0,144,161a6.48,6.48,0,0,0-1.94,1.41l-.46-1.62h-3.11v13h4v-8.86a4.63,4.63,0,0,1,1.25-1,3,3,0,0,1,1.37-.38,1.58,1.58,0,0,1,1.31.56,2.31,2.31,0,0,1,.44,1.5v8.18h4v-8.59a4.75,4.75,0,0,0-1.16-3.48A4.48,4.48,0,0,0,146.39,160.49Z" /><path d="M160.55,160.57a8.71,8.71,0,0,0-1.05-.08,7.28,7.28,0,0,0-2.29.34,5.52,5.52,0,0,0-1.81,1,4.61,4.61,0,0,0-1.2,1.51,4.3,4.3,0,0,0-.43,1.93,3.79,3.79,0,0,0,.21,1.31,4.13,4.13,0,0,0,.56,1,4.76,4.76,0,0,0,1.47,1.33,4,4,0,0,0-1.39,1.07,2.36,2.36,0,0,0-.55,1.58,2.08,2.08,0,0,0,.4,1.31,3.18,3.18,0,0,0,.73.74,3.8,3.8,0,0,0-1.63,1,2.24,2.24,0,0,0-.59,1.53,3.35,3.35,0,0,0,1.73,3,9.18,9.18,0,0,0,4.76,1.05,11.38,11.38,0,0,0,3-.36,7.54,7.54,0,0,0,2.27-1,4.68,4.68,0,0,0,1.44-1.54,3.74,3.74,0,0,0,.52-1.94,4.49,4.49,0,0,0-.35-1.85,3.28,3.28,0,0,0-1-1.26,3.85,3.85,0,0,0-1.53-.7,7.89,7.89,0,0,0-1.94-.22h-2.73a1.68,1.68,0,0,1-1-.22.7.7,0,0,1-.26-.56.72.72,0,0,1,.16-.49,1.6,1.6,0,0,1,.35-.3,3.31,3.31,0,0,0,.55.08,5,5,0,0,0,.56,0,7.6,7.6,0,0,0,2.38-.34,4.91,4.91,0,0,0,1.78-1,4,4,0,0,0,1.11-1.46,4.45,4.45,0,0,0,.38-1.86,4.12,4.12,0,0,0-.2-1.24,3.66,3.66,0,0,0-.5-1l1.51.24h1.24v-2.45h-5.51A7.33,7.33,0,0,0,160.55,160.57Zm.27,13.75a2.78,2.78,0,0,1,1.46.29,1,1,0,0,1,.43.9,1.48,1.48,0,0,1-.77,1.23,4.23,4.23,0,0,1-2.36.53,4,4,0,0,1-2.34-.49,1.44,1.44,0,0,1-.64-1.16,1.32,1.32,0,0,1,.25-.81,1.56,1.56,0,0,1,.57-.49Zm-.11-7.68a1.86,1.86,0,0,1-2.52,0,2,2,0,0,1-.5-1.45,2,2,0,0,1,.48-1.45,1.85,1.85,0,0,1,2.53,0,2.37,2.37,0,0,1,0,2.9Z" /><path d="M188.53,158.79a7.6,7.6,0,0,0-2.83-1.54,12,12,0,0,0-3.67-.52H176v17h5.4a12.6,12.6,0,0,0,3.73-.54,8.7,8.7,0,0,0,3.07-1.63,7.78,7.78,0,0,0,2.07-2.76,9.44,9.44,0,0,0,.75-3.93,9.26,9.26,0,0,0-.63-3.55A6.74,6.74,0,0,0,188.53,158.79Zm-2.34,8.86a4.75,4.75,0,0,1-1.21,1.77,4.43,4.43,0,0,1-1.77.93,8.17,8.17,0,0,1-2.1.27h-1.05V159.87h1.48a5.23,5.23,0,0,1,3.73,1.28,4.86,4.86,0,0,1,1.38,3.74A7.17,7.17,0,0,1,186.19,167.65Z" /><path d="M204.43,162.2a5.9,5.9,0,0,0-2.12-1.28,7.94,7.94,0,0,0-2.66-.43A7.59,7.59,0,0,0,197,161a6.22,6.22,0,0,0-2.16,1.37,6.45,6.45,0,0,0-1.45,2.18,7.84,7.84,0,0,0-.52,3,7.28,7.28,0,0,0,.51,2.8,5.81,5.81,0,0,0,1.41,2.06,6.07,6.07,0,0,0,2.12,1.29,7.9,7.9,0,0,0,2.66.44,7.53,7.53,0,0,0,2.67-.47,6.2,6.2,0,0,0,3.61-3.53,8.13,8.13,0,0,0,0-5.75A6.09,6.09,0,0,0,204.43,162.2ZM202,169.11a3.13,3.13,0,0,1-.58,1.17,2.12,2.12,0,0,1-.83.65,2.43,2.43,0,0,1-1,.2,2.4,2.4,0,0,1-1.86-.92,4.28,4.28,0,0,1-.82-2.89,6.94,6.94,0,0,1,.22-1.87,3.5,3.5,0,0,1,.58-1.21,2,2,0,0,1,.84-.64,2.58,2.58,0,0,1,2,0,2.43,2.43,0,0,1,.86.69,3.47,3.47,0,0,1,.59,1.22,7.39,7.39,0,0,1,0,3.58Z" /><path d="M216.67,160.49a5.42,5.42,0,0,0-2.35.51,6.65,6.65,0,0,0-1.95,1.41l-.46-1.62h-3.1v13h4v-8.86a4.48,4.48,0,0,1,1.25-1,3,3,0,0,1,1.37-.38,1.6,1.6,0,0,1,1.31.56,2.37,2.37,0,0,1,.44,1.5v8.18h4v-8.59a4.79,4.79,0,0,0-1.16-3.48A4.48,4.48,0,0,0,216.67,160.49Z" /><path d="M230.83,160.57a8.71,8.71,0,0,0-1.06-.08,7.22,7.22,0,0,0-2.28.34,5.43,5.43,0,0,0-1.81,1,4.61,4.61,0,0,0-1.2,1.51,4.3,4.3,0,0,0-.43,1.93,3.79,3.79,0,0,0,.21,1.31,4.13,4.13,0,0,0,.56,1,4,4,0,0,0,.73.8,4,4,0,0,0,.74.53A4,4,0,0,0,224.9,170a2.37,2.37,0,0,0-.56,1.58,2.09,2.09,0,0,0,.41,1.31,3.18,3.18,0,0,0,.73.74,3.9,3.9,0,0,0-1.64,1,2.28,2.28,0,0,0-.58,1.53,3.35,3.35,0,0,0,1.73,3,9.16,9.16,0,0,0,4.76,1.05,11.43,11.43,0,0,0,3-.36,7.66,7.66,0,0,0,2.27-1,4.68,4.68,0,0,0,1.44-1.54,3.83,3.83,0,0,0,.51-1.94,4.33,4.33,0,0,0-.35-1.85,3.16,3.16,0,0,0-1-1.26,4,4,0,0,0-1.53-.7,7.89,7.89,0,0,0-1.94-.22H229.4a1.66,1.66,0,0,1-1-.22.67.67,0,0,1-.26-.56.72.72,0,0,1,.16-.49,1.6,1.6,0,0,1,.35-.3,3.35,3.35,0,0,0,.54.08,5.17,5.17,0,0,0,.57,0,7.64,7.64,0,0,0,2.38-.34,4.91,4.91,0,0,0,1.78-1,4,4,0,0,0,1.11-1.46,4.45,4.45,0,0,0,.38-1.86,3.84,3.84,0,0,0-.21-1.24,3.41,3.41,0,0,0-.5-1l1.52.24h1.24v-2.45h-5.51A7.91,7.91,0,0,0,230.83,160.57Zm.27,13.75a2.78,2.78,0,0,1,1.46.29,1,1,0,0,1,.43.9,1.5,1.5,0,0,1-.77,1.23,4.23,4.23,0,0,1-2.36.53,4,4,0,0,1-2.34-.49,1.41,1.41,0,0,1-.64-1.16,1.26,1.26,0,0,1,.25-.81,1.61,1.61,0,0,1,.56-.49Zm-.11-7.68a1.7,1.7,0,0,1-1.27.49,1.73,1.73,0,0,1-1.26-.49,2,2,0,0,1-.5-1.45,2,2,0,0,1,.49-1.45,1.7,1.7,0,0,1,1.27-.5,1.74,1.74,0,0,1,1.26.5,2,2,0,0,1,.5,1.45A2,2,0,0,1,231,166.64Z" /><path d="M229.7,1.57l-62.93,75a4.37,4.37,0,0,1-7.72-2.81V4.38a4.37,4.37,0,0,0-7.72-2.81l-62.93,75a4.37,4.37,0,0,1-7.72-2.81V4.38A4.37,4.37,0,0,0,73,1.57L1,87.29a4.37,4.37,0,0,0,3.35,7.18H233.05a4.37,4.37,0,0,0,4.37-4.37V4.38A4.37,4.37,0,0,0,229.7,1.57Z" /></svg>